<?xml version="1.0" encoding="utf-8"?>
<!DOCTYPE svg PUBLIC "-//W3C//DTD SVG 1.1//EN" "http://www.w3.org/Graphics/SVG/1.1/DTD/svg11.dtd">
<svg width="40" height="40" xmlns="http://www.w3.org/2000/svg">
 <style>.st0{fill:#2E343D}</style>
 <g>
  <title>background</title>
  <rect fill="none" id="canvas_background" height="42" width="42" y="-1" x="-1"/>
 </g>
 <g>
  <title>Layer 1</title>
  <path id="svg_7" fill="#135EEB" d="m25.523531,0.740335c-6.6,0 -12.2,4.7 -13.4,11.2c0.8,-0.1 1.6,-0.2 2.4,-0.2l0,0c-0.8,0 -1.6,0.1 -2.4,0.2l0,0c-6.5,1.2 -11.2,6.8 -11.2,13.4l0,13.5l13.6,0c6.5,0 12.1,-4.6 13.3,-11l-2.3,0c-0.2,0 -0.5,0 -0.7,0c0.2,0 0.5,0 0.7,0l13.6,0l0,-13.5c-0.1,-7.5 -6.1,-13.6 -13.6,-13.6zm-13.6,13.6c0,0.9 0.1,1.8 0.3,2.7c-0.2,-0.9 -0.3,-1.8 -0.3,-2.7l0,0z" class="st1"/>
  <path id="svg_8" fill="#0A60EA" class="st2"/>
  <path transform="translate(-1.1764689683914185,0.840334951877594) translate(2,-1) " id="svg_9" fill="#15C2FF" d="m24.7,28.1c-7.5,0 -13.6,-6 -13.6,-13.5c0,0 0,0 0,0c0,-0.8 0.1,-1.6 0.2,-2.4c-6.5,1.1 -11.2,6.7 -11.2,13.3l0,13.5l13.6,0c6.5,0 12.1,-4.6 13.3,-11l-2.3,0l0,0.1z" class="st3"/>
  <path transform="translate(-1.1764689683914185,0.840334951877594) translate(2,-1) " id="svg_10" fill="#2C82FF" d="m24.7,0.9c-6.6,0 -12.2,4.7 -13.4,11.2c0.8,-0.1 1.6,-0.2 2.4,-0.2c7.5,0 13.6,6 13.6,13.5c0,0.9 -0.1,1.7 -0.2,2.6l11.2,0l0,-13.5c-0.1,-7.5 -6.1,-13.6 -13.6,-13.6z" class="st4"/>
 </g>
</svg>
